<svg width="25" height="24" viewBox="0 0 25 24" fill="none" xmlns="http://www.w3.org/2000/svg">
<path d="M14.2538 2.45709C14.3077 2.56235 14.3315 2.68042 14.3227 2.79835C14.3139 2.91627 14.2727 3.02948 14.2038 3.12554L12.8547 5.00821C12.7951 5.09142 12.7166 5.15923 12.6257 5.20601C12.5347 5.25279 12.4339 5.27719 12.3316 5.27719C12.2293 5.27719 12.1284 5.25279 12.0375 5.20601C11.9465 5.15923 11.868 5.09142 11.8084 5.00821L10.4593 3.12554C10.3902 3.02936 10.349 2.91596 10.3402 2.79784C10.3314 2.67972 10.3554 2.56146 10.4094 2.45609C10.4635 2.35072 10.5457 2.26233 10.6468 2.20066C10.7479 2.139 10.864 2.10644 10.9825 2.10659H11.3304V0.226416C11.332 0.195168 11.3397 0.164544 11.3532 0.136297C11.3666 0.108049 11.3855 0.0827352 11.4088 0.0618041C11.432 0.040873 11.4592 0.0247366 11.4887 0.0143192C11.5182 0.00390179 11.5494 -0.000591777 11.5807 0.001096H11.6057C12.0932 0.054441 12.585 0.054441 13.0724 0.001096C13.1045 -0.00199112 13.1368 0.00145992 13.1675 0.0112399C13.1981 0.0210199 13.2265 0.0369253 13.2508 0.0579924C13.2752 0.0790594 13.295 0.10485 13.3091 0.1338C13.3231 0.162751 13.3312 0.194259 13.3327 0.226416V2.09657H13.6832C13.8024 2.0976 13.919 2.13189 14.0198 2.19558C14.1206 2.25927 14.2017 2.34983 14.2538 2.45709ZM20.9968 4.62266C20.9953 4.5893 20.9867 4.55664 20.9716 4.52686C20.9565 4.49707 20.9352 4.47085 20.9092 4.44992C20.5275 4.14274 20.1801 3.79523 19.873 3.41345C19.8515 3.3881 19.8251 3.36729 19.7954 3.35225C19.7658 3.33721 19.7334 3.32822 19.7003 3.32582H19.6878C19.6251 3.32734 19.5652 3.35236 19.5201 3.39592L18.1985 4.7178L17.9482 4.46744C17.8645 4.38399 17.7595 4.32521 17.6446 4.29755C17.5297 4.26988 17.4094 4.2744 17.297 4.31061C17.1845 4.34682 17.0841 4.41332 17.007 4.50281C16.9298 4.59231 16.8787 4.70134 16.8594 4.81794L16.4815 7.10369C16.4622 7.20653 16.4682 7.31252 16.4991 7.41248C16.5301 7.51245 16.5849 7.60336 16.6588 7.67735C16.7328 7.75134 16.8237 7.80616 16.9236 7.83708C17.0236 7.86799 17.1295 7.87406 17.2324 7.85476L19.5176 7.47672C19.6341 7.4574 19.7431 7.40635 19.8326 7.32914C19.9221 7.25194 19.9886 7.15158 20.0248 7.03907C20.061 6.92656 20.0655 6.80626 20.0378 6.69135C20.0102 6.57644 19.9514 6.47137 19.868 6.38767L19.6177 6.13732L20.9392 4.81544C20.9625 4.78956 20.9797 4.75885 20.9897 4.72551C20.9996 4.69218 21.0021 4.65705 20.9968 4.62266ZM8.18165 7.10369L7.8037 4.81794C7.78439 4.70134 7.73334 4.59231 7.65616 4.50281C7.57898 4.41332 7.47864 4.34682 7.36616 4.31061C7.25368 4.2744 7.1334 4.26988 7.01852 4.29755C6.90363 4.32521 6.79859 4.38399 6.71491 4.46744L6.46462 4.7178L5.14305 3.39592C5.09791 3.35236 5.03806 3.32734 4.97536 3.32582H4.96284C4.92968 3.32822 4.89732 3.33721 4.86767 3.35225C4.83802 3.36729 4.81166 3.3881 4.79014 3.41345C4.48305 3.79525 4.13562 4.14275 3.75391 4.44992C3.72791 4.47078 3.70659 4.49688 3.69132 4.52652C3.67606 4.55616 3.6672 4.58867 3.66531 4.62196C3.66342 4.65525 3.66855 4.68856 3.68036 4.71973C3.69218 4.75091 3.71041 4.77925 3.73389 4.80292L5.05545 6.1248L4.80515 6.37515C4.72172 6.45885 4.66296 6.56392 4.6353 6.67883C4.60764 6.79374 4.61216 6.91405 4.64836 7.02656C4.68456 7.13906 4.75104 7.23942 4.84052 7.31663C4.92999 7.39383 5.03899 7.44489 5.15557 7.4642L7.44077 7.84224C7.54358 7.86154 7.64955 7.85547 7.74949 7.82456C7.84943 7.79364 7.94032 7.73882 8.01429 7.66483C8.08826 7.59084 8.14308 7.49993 8.17398 7.39997C8.20489 7.3 8.21096 7.19401 8.19166 7.09117L8.18165 7.10369ZM8.18165 16.8851C8.20095 16.7823 8.19488 16.6763 8.16397 16.5763C8.13307 16.4763 8.07825 16.3854 8.00428 16.3114C7.93031 16.2374 7.83942 16.1826 7.73948 16.1517C7.63954 16.1208 7.53357 16.1147 7.43076 16.134L5.14556 16.5121C5.02898 16.5314 4.91998 16.5824 4.8305 16.6596C4.74103 16.7368 4.67455 16.8372 4.63835 16.9497C4.60214 17.0622 4.59763 17.1825 4.62528 17.2974C4.65294 17.4123 4.71171 17.5174 4.79514 17.6011L5.04544 17.8515L3.72387 19.1733C3.7004 19.197 3.68217 19.2254 3.67035 19.2565C3.65854 19.2877 3.65341 19.321 3.6553 19.3543C3.65719 19.3876 3.66605 19.4201 3.68131 19.4497C3.69658 19.4794 3.7179 19.5055 3.7439 19.5263C4.12554 19.8336 4.47296 20.1811 4.78012 20.5628C4.80098 20.5888 4.82707 20.6101 4.8567 20.6254C4.88634 20.6407 4.91885 20.6496 4.95212 20.6514C4.9854 20.6533 5.0187 20.6482 5.04987 20.6364C5.08104 20.6246 5.10938 20.6063 5.13304 20.5828L6.45461 19.261L6.7049 19.5113C6.78858 19.5948 6.89362 19.6536 7.0085 19.6812C7.12338 19.7089 7.24366 19.7044 7.35615 19.6682C7.46863 19.6319 7.56897 19.5654 7.64615 19.476C7.72333 19.3865 7.77438 19.2774 7.79369 19.1608L8.18165 16.8851ZM24.2607 11.0768C24.2186 11.0283 24.1594 10.9978 24.0955 10.9917H22.2133V10.6462C22.2131 10.5282 22.1804 10.4125 22.1189 10.3118C22.0574 10.211 21.9693 10.1292 21.8644 10.0752C21.7595 10.0211 21.6417 9.99702 21.524 10.0055C21.4063 10.0139 21.2932 10.0545 21.197 10.123L19.3148 11.4724C19.2316 11.5319 19.1638 11.6105 19.1171 11.7015C19.0703 11.7925 19.0459 11.8933 19.0459 11.9956C19.0459 12.098 19.0703 12.1988 19.1171 12.2898C19.1638 12.3808 19.2316 12.4593 19.3148 12.5189L21.197 13.8683C21.2934 13.9365 21.4065 13.9772 21.5243 13.986C21.642 13.9948 21.7599 13.9714 21.8653 13.9184C21.9702 13.8645 22.0582 13.7826 22.1196 13.6819C22.181 13.5812 22.2134 13.4655 22.2133 13.3476V12.9946H24.0955C24.1276 12.9943 24.1593 12.9875 24.1887 12.9746C24.2181 12.9617 24.2446 12.943 24.2666 12.9196C24.2885 12.8962 24.3056 12.8686 24.3166 12.8385C24.3276 12.8083 24.3324 12.7763 24.3308 12.7442C24.2771 12.2566 24.2771 11.7647 24.3308 11.2771C24.3345 11.2406 24.3301 11.2038 24.318 11.1692C24.3059 11.1346 24.2863 11.103 24.2607 11.0768ZM20.0056 16.9577C19.9703 16.8458 19.9049 16.7458 19.8166 16.6686C19.7284 16.5913 19.6206 16.5398 19.505 16.5196L17.2198 16.1415C17.117 16.1222 17.0111 16.1283 16.9111 16.1592C16.8112 16.1901 16.7203 16.245 16.6463 16.3189C16.5724 16.3929 16.5175 16.4838 16.4866 16.5838C16.4557 16.6838 16.4497 16.7898 16.469 16.8926L16.8469 19.1783C16.8662 19.295 16.9173 19.404 16.9944 19.4935C17.0716 19.583 17.172 19.6495 17.2844 19.6857C17.3969 19.7219 17.5172 19.7264 17.6321 19.6987C17.747 19.6711 17.852 19.6123 17.9357 19.5288L18.186 19.2785L19.5075 20.6004C19.5309 20.6242 19.5591 20.6427 19.5901 20.6548C19.6212 20.6669 19.6545 20.6722 19.6878 20.6705C19.7209 20.6681 19.7533 20.6591 19.7829 20.644C19.8126 20.629 19.8389 20.6082 19.8605 20.5828C20.1676 20.2011 20.515 19.8536 20.8967 19.5464C20.9227 19.5255 20.944 19.4994 20.9593 19.4698C20.9745 19.4401 20.9834 19.4076 20.9853 19.3743C20.9872 19.341 20.9821 19.3077 20.9702 19.2766C20.9584 19.2454 20.9402 19.217 20.9167 19.1934L19.5952 17.8715L19.8454 17.6211C19.933 17.5381 19.9952 17.4319 20.0249 17.3149C20.0546 17.198 20.0505 17.075 20.0131 16.9602L20.0056 16.9577ZM12.3316 18.7102C12.2298 18.7105 12.1295 18.7349 12.039 18.7814C11.9485 18.828 11.8703 18.8954 11.8109 18.9781L10.4618 20.8607C10.3934 20.9569 10.3528 21.0701 10.3443 21.1878C10.3359 21.3055 10.36 21.4233 10.414 21.5283C10.468 21.6332 10.5499 21.7213 10.6506 21.7828C10.7513 21.8444 10.867 21.877 10.985 21.8772H11.3304V23.7599C11.3307 23.792 11.3375 23.8237 11.3503 23.8531C11.3632 23.8825 11.3819 23.909 11.4053 23.931C11.4287 23.953 11.4563 23.97 11.4864 23.981C11.5166 23.9921 11.5486 23.9969 11.5807 23.9952C12.0681 23.9417 12.56 23.9417 13.0474 23.9952C13.0821 24.0023 13.118 24.0015 13.1524 23.993C13.1868 23.9844 13.2189 23.9682 13.2462 23.9457C13.2736 23.9231 13.2956 23.8947 13.3105 23.8626C13.3255 23.8304 13.3331 23.7953 13.3327 23.7599V21.8772H13.6857C13.8041 21.8773 13.9202 21.8448 14.0213 21.7831C14.1225 21.7214 14.2046 21.6331 14.2587 21.5277C14.3128 21.4223 14.3367 21.3041 14.3279 21.1859C14.3191 21.0678 14.2779 20.9544 14.2088 20.8582L12.8547 18.9781C12.7949 18.8952 12.7163 18.8277 12.6253 18.7812C12.5344 18.7346 12.4337 18.7103 12.3316 18.7102ZM0.402444 12.9094C0.444549 12.958 0.503694 12.9884 0.56764 12.9946H2.43735V13.3476C2.43754 13.4656 2.47018 13.5813 2.5317 13.682C2.59323 13.7828 2.68127 13.8646 2.7862 13.9186C2.89112 13.9727 3.00887 13.9968 3.12658 13.9883C3.24429 13.9799 3.3574 13.9392 3.45355 13.8708L5.33578 12.5214C5.41897 12.4618 5.48676 12.3833 5.53353 12.2923C5.5803 12.2013 5.6047 12.1005 5.6047 11.9981C5.6047 11.8958 5.5803 11.795 5.53353 11.704C5.48676 11.613 5.41897 11.5344 5.33578 11.4749L3.45355 10.1255C3.3574 10.0571 3.24429 10.0164 3.12658 10.008C3.00887 9.99952 2.89112 10.0236 2.7862 10.0777C2.68127 10.1317 2.59323 10.2135 2.5317 10.3143C2.47018 10.415 2.43754 10.5307 2.43735 10.6487V10.9917H0.56764C0.535543 10.992 0.503839 10.9988 0.474436 11.0117C0.445034 11.0246 0.418543 11.0433 0.396559 11.0666C0.374575 11.09 0.357553 11.1176 0.34652 11.1478C0.335487 11.1779 0.330671 11.21 0.332361 11.2421C0.36358 11.4913 0.381127 11.742 0.384924 11.9931C0.384674 12.2382 0.371305 12.4831 0.344876 12.7267C0.342004 12.7594 0.34561 12.7924 0.355488 12.8238C0.365365 12.8551 0.381321 12.8842 0.402444 12.9094ZM15.5078 15.2478V14.1787C15.5078 13.5538 15.3223 12.943 14.9747 12.4237C14.6271 11.9045 14.1332 11.5002 13.5555 11.2621C13.9376 11.0006 14.226 10.6236 14.3784 10.1863C14.5307 9.74901 14.5391 9.27441 14.4023 8.832C14.2655 8.38959 13.9906 8.00262 13.618 7.72778C13.2454 7.45294 12.7945 7.30466 12.3316 7.30466C11.8686 7.30466 11.4178 7.45294 11.0451 7.72778C10.6725 8.00262 10.3976 8.38959 10.2608 8.832C10.124 9.27441 10.1324 9.74901 10.2848 10.1863C10.4371 10.6236 10.7255 11.0006 11.1076 11.2621C10.53 11.5002 10.036 11.9045 9.68843 12.4237C9.34085 12.943 9.1553 13.5538 9.1553 14.1787V15.2478C9.1553 15.3653 9.20198 15.478 9.28506 15.5611C9.36814 15.6442 9.48083 15.6909 9.59832 15.6909H15.0648C15.1823 15.6909 15.295 15.6442 15.3781 15.5611C15.4611 15.478 15.5078 15.3653 15.5078 15.2478Z" fill="#001C6B"/>
</svg>
