<svg width="24" height="24" viewBox="0 0 24 24" fill="none" xmlns="http://www.w3.org/2000/svg">
<path d="M13.9218 2.45709C13.9757 2.56235 13.9995 2.68042 13.9907 2.79835C13.9818 2.91627 13.9407 3.02948 13.8717 3.12554L12.5226 5.00821C12.4631 5.09142 12.3846 5.15923 12.2936 5.20601C12.2026 5.25279 12.1018 5.2772 11.9995 5.2772C11.8972 5.2772 11.7964 5.25279 11.7054 5.20601C11.6145 5.15923 11.5359 5.09142 11.4764 5.00821L10.1273 3.12554C10.0582 3.02936 10.017 2.91596 10.0082 2.79784C9.99935 2.67972 10.0233 2.56146 10.0774 2.45609C10.1315 2.35072 10.2136 2.26233 10.3147 2.20066C10.4158 2.139 10.532 2.10644 10.6504 2.10659H10.9983V0.226416C10.9999 0.195168 11.0077 0.164544 11.0211 0.136297C11.0346 0.108049 11.0535 0.0827352 11.0767 0.0618041C11.1 0.040873 11.1271 0.0247366 11.1566 0.0143192C11.1861 0.00390179 11.2174 -0.000591777 11.2486 0.001096H11.2737C11.7611 0.054441 12.2529 0.054441 12.7404 0.001096C12.7724 -0.00199112 12.8048 0.00145992 12.8354 0.0112399C12.8661 0.0210199 12.8945 0.0369253 12.9188 0.0579924C12.9431 0.0790594 12.963 0.10485 12.977 0.1338C12.9911 0.162751 12.9992 0.194259 13.0007 0.226416V2.09657H13.3511C13.4704 2.0976 13.587 2.13189 13.6878 2.19558C13.7886 2.25927 13.8696 2.34983 13.9218 2.45709ZM20.6648 4.62266C20.6633 4.5893 20.6547 4.55664 20.6396 4.52686C20.6245 4.49707 20.6032 4.47085 20.5772 4.44992C20.1955 4.14274 19.8481 3.79523 19.541 3.41345C19.5194 3.3881 19.4931 3.36729 19.4634 3.35225C19.4338 3.33721 19.4014 3.32822 19.3682 3.32582H19.3557C19.293 3.32734 19.2332 3.35236 19.188 3.39592L17.8665 4.7178L17.6162 4.46744C17.5325 4.38399 17.4275 4.32521 17.3126 4.29755C17.1977 4.26988 17.0774 4.2744 16.9649 4.31061C16.8524 4.34682 16.7521 4.41332 16.6749 4.50281C16.5977 4.59231 16.5467 4.70134 16.5274 4.81794L16.1494 7.10369C16.1301 7.20653 16.1362 7.31252 16.1671 7.41248C16.198 7.51245 16.2528 7.60336 16.3268 7.67735C16.4008 7.75134 16.4917 7.80616 16.5916 7.83708C16.6915 7.86799 16.7975 7.87406 16.9003 7.85476L19.1855 7.47672C19.3021 7.4574 19.4111 7.40635 19.5006 7.32914C19.5901 7.25194 19.6565 7.15158 19.6927 7.03907C19.7289 6.92656 19.7335 6.80626 19.7058 6.69135C19.6781 6.57644 19.6194 6.47137 19.5359 6.38767L19.2856 6.13732L20.6072 4.81544C20.6305 4.78956 20.6477 4.75885 20.6576 4.72551C20.6676 4.69218 20.67 4.65705 20.6648 4.62266ZM7.84962 7.10369L7.47167 4.81794C7.45236 4.70134 7.40131 4.59231 7.32413 4.50281C7.24695 4.41332 7.14661 4.34682 7.03413 4.31061C6.92165 4.2744 6.80137 4.26988 6.68648 4.29755C6.5716 4.32521 6.46656 4.38399 6.38288 4.46744L6.13259 4.7178L4.81102 3.39592C4.76588 3.35236 4.70603 3.32734 4.64332 3.32582H4.63081C4.59765 3.32822 4.56529 3.33721 4.53564 3.35225C4.50599 3.36729 4.47963 3.3881 4.4581 3.41345C4.15101 3.79525 3.80359 4.14275 3.42188 4.44992C3.39588 4.47078 3.37456 4.49688 3.35929 4.52652C3.34403 4.55616 3.33517 4.58867 3.33328 4.62196C3.33139 4.65525 3.33652 4.68856 3.34833 4.71973C3.36015 4.75091 3.37838 4.77925 3.40185 4.80292L4.72342 6.1248L4.47312 6.37515C4.38969 6.45885 4.33092 6.56392 4.30326 6.67883C4.27561 6.79374 4.28012 6.91405 4.31633 7.02656C4.35253 7.13906 4.41901 7.23942 4.50848 7.31663C4.59796 7.39383 4.70696 7.44489 4.82354 7.4642L7.10874 7.84224C7.21155 7.86154 7.31752 7.85547 7.41746 7.82456C7.5174 7.79364 7.60829 7.73882 7.68226 7.66483C7.75623 7.59084 7.81105 7.49993 7.84195 7.39997C7.87286 7.3 7.87893 7.19401 7.85963 7.09117L7.84962 7.10369ZM7.84962 16.8851C7.86891 16.7823 7.86285 16.6763 7.83194 16.5763C7.80103 16.4763 7.74622 16.3854 7.67225 16.3114C7.59828 16.2374 7.50739 16.1826 7.40745 16.1517C7.30751 16.1208 7.20154 16.1147 7.09873 16.134L4.81353 16.5121C4.69695 16.5314 4.58795 16.5824 4.49847 16.6596C4.409 16.7368 4.34252 16.8372 4.30631 16.9497C4.27011 17.0622 4.26559 17.1825 4.29325 17.2974C4.32091 17.4123 4.37968 17.5174 4.46311 17.6011L4.71341 17.8515L3.39184 19.1733C3.36837 19.197 3.35014 19.2254 3.33832 19.2565C3.32651 19.2877 3.32138 19.321 3.32327 19.3543C3.32515 19.3876 3.33402 19.4201 3.34928 19.4497C3.36454 19.4794 3.38587 19.5055 3.41187 19.5263C3.79351 19.8336 4.14093 20.1811 4.44809 20.5628C4.46895 20.5888 4.49504 20.6101 4.52467 20.6254C4.5543 20.6407 4.58681 20.6496 4.62009 20.6514C4.65337 20.6533 4.68667 20.6482 4.71784 20.6364C4.74901 20.6246 4.77734 20.6063 4.80101 20.5828L6.12257 19.261L6.37287 19.5113C6.45655 19.5948 6.56159 19.6536 6.67647 19.6812C6.79135 19.7089 6.91163 19.7044 7.02412 19.6682C7.1366 19.6319 7.23693 19.5654 7.31412 19.476C7.3913 19.3865 7.44235 19.2774 7.46166 19.1608L7.84962 16.8851ZM23.9286 11.0768C23.8865 11.0283 23.8274 10.9978 23.7634 10.9917H21.8812V10.6462C21.881 10.5282 21.8484 10.4125 21.7869 10.3118C21.7253 10.211 21.6373 10.1292 21.5324 10.0752C21.4275 10.0211 21.3097 9.99702 21.192 10.0055C21.0743 10.0139 20.9612 10.0545 20.865 10.123L18.9828 11.4724C18.8996 11.5319 18.8318 11.6105 18.785 11.7015C18.7383 11.7925 18.7139 11.8933 18.7139 11.9956C18.7139 12.098 18.7383 12.1988 18.785 12.2898C18.8318 12.3808 18.8996 12.4593 18.9828 12.5189L20.865 13.8683C20.9614 13.9365 21.0745 13.9772 21.1922 13.986C21.3099 13.9948 21.4278 13.9714 21.5333 13.9184C21.6382 13.8645 21.7262 13.7826 21.7876 13.6819C21.849 13.5812 21.8814 13.4655 21.8812 13.3476V12.9946H23.7634C23.7955 12.9943 23.8272 12.9875 23.8567 12.9746C23.8861 12.9617 23.9125 12.943 23.9345 12.9196C23.9565 12.8962 23.9735 12.8686 23.9846 12.8385C23.9956 12.8083 24.0004 12.7763 23.9987 12.7442C23.9451 12.2566 23.9451 11.7647 23.9987 11.2771C24.0024 11.2406 23.9981 11.2038 23.9859 11.1692C23.9738 11.1346 23.9543 11.103 23.9286 11.0768ZM19.6736 16.9577C19.6383 16.8458 19.5729 16.7458 19.4846 16.6686C19.3963 16.5913 19.2886 16.5398 19.173 16.5196L16.8878 16.1415C16.785 16.1222 16.679 16.1283 16.5791 16.1592C16.4792 16.1901 16.3883 16.245 16.3143 16.3189C16.2403 16.3929 16.1855 16.4838 16.1546 16.5838C16.1237 16.6838 16.1176 16.7898 16.1369 16.8926L16.5149 19.1783C16.5342 19.295 16.5852 19.404 16.6624 19.4935C16.7396 19.583 16.8399 19.6495 16.9524 19.6857C17.0649 19.7219 17.1852 19.7264 17.3001 19.6987C17.4149 19.6711 17.52 19.6123 17.6037 19.5288L17.854 19.2785L19.1755 20.6004C19.1989 20.6242 19.227 20.6427 19.2581 20.6548C19.2892 20.6669 19.3224 20.6722 19.3557 20.6705C19.3889 20.6681 19.4212 20.6591 19.4509 20.644C19.4806 20.629 19.5069 20.6082 19.5284 20.5828C19.8356 20.2011 20.183 19.8536 20.5647 19.5464C20.5907 19.5255 20.612 19.4994 20.6272 19.4698C20.6425 19.4401 20.6514 19.4076 20.6533 19.3743C20.6552 19.341 20.65 19.3077 20.6382 19.2766C20.6264 19.2454 20.6082 19.217 20.5847 19.1934L19.2631 17.8715L19.5134 17.6211C19.601 17.5381 19.6632 17.4319 19.6929 17.3149C19.7226 17.198 19.7185 17.075 19.6811 16.9602L19.6736 16.9577ZM11.9995 18.7102C11.8977 18.7105 11.7975 18.7349 11.707 18.7814C11.6165 18.828 11.5383 18.8954 11.4789 18.9781L10.1298 20.8607C10.0614 20.9569 10.0207 21.0701 10.0123 21.1878C10.0039 21.3055 10.028 21.4233 10.082 21.5283C10.136 21.6332 10.2178 21.7213 10.3185 21.7828C10.4192 21.8444 10.5349 21.877 10.6529 21.8772H10.9983V23.7599C10.9986 23.792 11.0054 23.8237 11.0183 23.8531C11.0312 23.8825 11.0499 23.909 11.0733 23.931C11.0966 23.953 11.1242 23.97 11.1544 23.981C11.1845 23.9921 11.2166 23.9969 11.2486 23.9952C11.7361 23.9417 12.2279 23.9417 12.7154 23.9952C12.7501 24.0023 12.786 24.0015 12.8204 23.993C12.8548 23.9844 12.8869 23.9682 12.9142 23.9457C12.9416 23.9231 12.9635 23.8947 12.9785 23.8626C12.9935 23.8304 13.0011 23.7953 13.0007 23.7599V21.8772H13.3536C13.4721 21.8773 13.5882 21.8448 13.6893 21.7831C13.7904 21.7214 13.8725 21.6331 13.9266 21.5277C13.9807 21.4223 14.0047 21.3041 13.9959 21.1859C13.9871 21.0678 13.9459 20.9544 13.8767 20.8582L12.5226 18.9781C12.4629 18.8952 12.3843 18.8277 12.2933 18.7812C12.2024 18.7346 12.1017 18.7103 11.9995 18.7102ZM0.070413 12.9094C0.112518 12.958 0.171663 12.9884 0.235608 12.9946H2.10532V13.3476C2.1055 13.4656 2.13815 13.5813 2.19967 13.682C2.2612 13.7828 2.34924 13.8646 2.45416 13.9186C2.55909 13.9727 2.67684 13.9968 2.79455 13.9883C2.91225 13.9799 3.02537 13.9392 3.12152 13.8708L5.00375 12.5214C5.08694 12.4618 5.15473 12.3833 5.2015 12.2923C5.24827 12.2013 5.27267 12.1005 5.27267 11.9981C5.27267 11.8958 5.24827 11.795 5.2015 11.704C5.15473 11.613 5.08694 11.5344 5.00375 11.4749L3.12152 10.1255C3.02537 10.0571 2.91225 10.0164 2.79455 10.008C2.67684 9.99952 2.55909 10.0236 2.45416 10.0777C2.34924 10.1317 2.2612 10.2135 2.19967 10.3143C2.13815 10.415 2.1055 10.5307 2.10532 10.6487V10.9917H0.235608C0.203512 10.992 0.171808 10.9988 0.142405 11.0117C0.113003 11.0246 0.0865113 11.0433 0.0645273 11.0666C0.0425433 11.09 0.0255219 11.1176 0.0144888 11.1478C0.00345575 11.1779 -0.00136059 11.21 0.000330102 11.2421C0.0315488 11.4913 0.0490959 11.742 0.0528923 11.9931C0.0526424 12.2382 0.0392741 12.4831 0.0128449 12.7267C0.00997309 12.7594 0.0135789 12.7924 0.0234565 12.8238C0.033334 12.8551 0.0492899 12.8842 0.070413 12.9094ZM15.1758 15.2478V14.1787C15.1758 13.5538 14.9902 12.943 14.6427 12.4237C14.2951 11.9045 13.8011 11.5002 13.2235 11.2621C13.6056 11.0006 13.8939 10.6236 14.0463 10.1863C14.1987 9.74901 14.2071 9.27441 14.0703 8.832C13.9334 8.38959 13.6586 8.00262 13.286 7.72778C12.9133 7.45294 12.4625 7.30466 11.9995 7.30466C11.5365 7.30466 11.0857 7.45294 10.7131 7.72778C10.3405 8.00262 10.0656 8.38959 9.92878 8.832C9.79196 9.27441 9.80035 9.74901 9.95273 10.1863C10.1051 10.6236 10.3935 11.0006 10.7756 11.2621C10.1979 11.5002 9.70399 11.9045 9.3564 12.4237C9.00882 12.943 8.82326 13.5538 8.82327 14.1787V15.2478C8.82327 15.3653 8.86995 15.478 8.95303 15.5611C9.03611 15.6442 9.1488 15.6909 9.26629 15.6909H14.7328C14.8503 15.6909 14.9629 15.6442 15.046 15.5611C15.1291 15.478 15.1758 15.3653 15.1758 15.2478Z" fill="white"/>
</svg>
