<svg width="22" height="24" viewBox="0 0 22 24" fill="none" xmlns="http://www.w3.org/2000/svg">
<path d="M11.332 0C11.0559 0 10.832 0.22385 10.832 0.5V2.5C10.832 2.77615 11.0559 3 11.332 3C11.6082 3 11.832 2.77615 11.832 2.5V0.5C11.832 0.22385 11.6082 0 11.332 0ZM4.26173 2.9297C4.13376 2.9297 4.00781 2.98047 3.91016 3.07812C3.71491 3.27338 3.71491 3.58597 3.91016 3.78125L5.32423 5.1953C5.51943 5.39057 5.83208 5.39057 6.02733 5.1953C6.22261 5.00007 6.22261 4.68748 6.02733 4.4922L4.61328 3.07812C4.51566 2.98047 4.38966 2.9297 4.26173 2.9297ZM18.4023 2.9297C18.2744 2.9297 18.1484 2.98047 18.0508 3.07812L16.6367 4.4922C16.4415 4.68748 16.4415 5.00007 16.6367 5.1953C16.832 5.39057 17.1446 5.39057 17.3398 5.1953L18.7539 3.78125C18.9492 3.58597 18.9492 3.27338 18.7539 3.07812C18.6563 2.98047 18.5303 2.9297 18.4023 2.9297ZM11.332 4.5C8.28323 4.5 5.33203 6.86537 5.33203 10.211C5.33203 14.3047 8.22156 15.3458 8.55078 18H14.1133C14.4425 15.3458 17.332 14.3047 17.332 10.211C17.332 6.86537 14.3808 4.5 11.332 4.5ZM10.7773 5.78125C11.1032 5.76575 11.3795 5.93137 11.3711 6.2578C11.3793 6.5196 11.1485 6.76525 10.8867 6.77345C9.02168 6.99095 7.58203 8.57162 7.58203 10.5C7.58203 10.8841 7.63908 11.2528 7.74608 11.6015C7.85026 11.8582 7.69083 12.1852 7.42578 12.2656C7.16073 12.346 6.84891 12.1619 6.79298 11.8906C6.65736 11.4493 6.58203 10.9855 6.58203 10.5C6.58203 8.07067 8.41696 6.05657 10.7773 5.78125ZM1.33203 10C1.05588 10 0.832031 10.2239 0.832031 10.5C0.832031 10.7761 1.05588 11 1.33203 11H3.33203C3.60818 11 3.83203 10.7761 3.83203 10.5C3.83203 10.2239 3.60818 10 3.33203 10H1.33203ZM19.332 10C19.0559 10 18.832 10.2239 18.832 10.5C18.832 10.7761 19.0559 11 19.332 11H21.332C21.6082 11 21.832 10.7761 21.832 10.5C21.832 10.2239 21.6082 10 21.332 10H19.332ZM8.58203 19V20H14.082V19H8.58203ZM8.58203 21V21.5C8.58203 22.0745 9.05441 22.5 9.58203 22.5H13.082C13.6097 22.5 14.082 22.0745 14.082 21.5V21H8.58203ZM10.332 23C10.332 23.554 10.778 24 11.332 24C11.886 24 12.332 23.554 12.332 23H10.332Z" fill="white"/>
</svg>
