<svg width="24" height="24" viewBox="0 0 24 24" fill="none" xmlns="http://www.w3.org/2000/svg">
<path fill-rule="evenodd" clip-rule="evenodd" d="M5.50103 4.4665C5.49997 3.28259 5.96749 2.14694 6.80009 1.3083C7.63376 0.470766 8.76309 1.83204e-06 9.9415 1.83204e-06C11.121 -0.00107048 12.2514 0.468625 13.0851 1.30616C13.9188 2.14263 14.3874 3.27828 14.3874 4.46216C14.3874 5.64714 13.9198 6.78172 13.0862 7.61926C12.2525 8.4568 11.1221 8.92756 9.94366 8.92756C8.76629 8.92756 7.63589 8.45787 6.80334 7.6214C5.96968 6.78386 5.50103 5.64929 5.50103 4.4665ZM23.4999 14.5747V16.7709C23.4999 23.0025 19.336 23.8947 18.7124 23.9936C18.6612 24.0021 18.6089 24.0021 18.5566 23.9936C17.9332 23.8949 13.766 23.0027 13.766 16.7709V14.5747H13.7671C13.7639 14.3785 13.8781 14.2004 14.0564 14.1211L18.4285 12.1007C18.5598 12.0374 18.7125 12.0374 18.8438 12.1007L23.2159 14.1211C23.3921 14.2026 23.5042 14.3806 23.4999 14.5747ZM22.7463 14.9425C22.7442 14.8342 22.6791 14.7377 22.5798 14.6948L18.7542 12.9211V12.9222C18.6837 12.8911 18.6047 12.8911 18.5353 12.9222L14.6744 14.7034C14.5826 14.7484 14.5239 14.8407 14.5207 14.9425V16.8342C14.5207 18.728 14.952 20.7496 16.4058 22.0665H16.4069C17.0238 22.623 17.7785 23.0027 18.5929 23.1646C18.6239 23.171 18.657 23.171 18.6879 23.1646C19.5013 23.0016 20.256 22.622 20.874 22.0665C22.3279 20.7485 22.757 18.7282 22.757 16.8342L22.7463 14.9425ZM18.6474 13.4487L22.2383 15.0959V16.8342C22.2383 18.5747 21.8669 20.4632 20.5273 21.6772V21.6761C19.9957 22.1608 19.3478 22.4976 18.6475 22.6541C17.9473 22.4976 17.3004 22.1608 16.7699 21.6761C15.4282 20.4622 15.0588 18.5736 15.0588 16.8331L15.0599 15.1098L18.6474 13.4487ZM20.5442 16.2733L17.5384 18.4696L16.9022 17.4294H16.9011C16.7325 17.1548 16.3738 17.068 16.1005 17.2374C15.8262 17.4068 15.7408 17.7661 15.9095 18.0417L16.8712 19.6149C16.9545 19.75 17.09 19.8454 17.2448 19.8765C17.3996 19.9087 17.5619 19.8744 17.691 19.7822L21.2103 17.2181C21.4665 17.0294 21.5209 16.668 21.3331 16.4106C21.1452 16.1543 20.7855 16.0986 20.5304 16.2873L20.5442 16.2733ZM13.2452 14.5747C13.2452 14.1758 13.4768 13.8144 13.8376 13.6492L16.5702 12.3838C14.8079 10.6176 12.4327 9.60746 9.94361 9.56436C7.65185 9.60404 5.44873 10.4587 3.72473 11.9762C2.00083 13.4946 0.869419 15.5772 0.530028 17.855C0.38379 18.7611 0.779806 19.6694 1.54088 20.1777C4.08989 21.9268 7.85048 22.6045 9.93301 22.6045C11.5011 22.5734 13.0575 22.3311 14.5623 21.885C13.5846 20.4029 13.2451 18.5659 13.2451 16.7729L13.2452 14.5747Z" fill="white"/>
</svg>
