<svg width="38" height="38" viewBox="0 0 38 38" fill="none" xmlns="http://www.w3.org/2000/svg">
<path d="M2.375 13.7275V27.3125C2.375 28.5723 2.87545 29.7805 3.76624 30.6713C4.65704 31.5621 5.86522 32.0625 7.125 32.0625H30.875C32.1348 32.0625 33.343 31.5621 34.2338 30.6713C35.1246 29.7805 35.625 28.5723 35.625 27.3125V13.7275L21.489 22.4248C20.7405 22.8853 19.8788 23.1291 19 23.1291C18.1212 23.1291 17.2595 22.8853 16.511 22.4248L2.375 13.7275Z" fill="#001C6B"/>
<path d="M35.625 10.9377V10.6875C35.625 9.42772 35.1246 8.21954 34.2338 7.32874C33.343 6.43795 32.1348 5.9375 30.875 5.9375H7.125C5.86522 5.9375 4.65704 6.43795 3.76624 7.32874C2.87545 8.21954 2.375 9.42772 2.375 10.6875V10.9377L17.7555 20.4028C18.1298 20.6331 18.5606 20.755 19 20.755C19.4394 20.755 19.8702 20.6331 20.2445 20.4028L35.625 10.9377Z" fill="#001C6B"/>
</svg>
