<svg width="38" height="38" viewBox="0 0 38 38" fill="none" xmlns="http://www.w3.org/2000/svg">
<path fill-rule="evenodd" clip-rule="evenodd" d="M19.0024 1.98071C12.9444 1.98071 7.16466 5.56384 4.74547 11.219C2.49403 16.4818 3.71285 20.9606 6.25054 24.7958C8.33114 27.9401 11.3657 30.7464 14.1034 33.2781L14.1047 33.2793C14.6263 33.7617 15.1372 34.2342 15.6285 34.697L15.6312 34.6995C16.5416 35.5518 17.7511 36.0224 19.0024 36.0224C20.2538 36.0224 21.4634 35.5518 22.3738 34.6993C22.8385 34.2642 23.3203 33.8203 23.8117 33.3674C26.5793 30.8175 29.6565 27.9822 31.7588 24.798C34.2936 20.9589 35.508 16.4753 33.2593 11.219C30.8402 5.56384 25.0605 1.98071 19.0024 1.98071ZM19 11.0849C15.5022 11.0849 12.6667 13.9204 12.6667 17.4182C12.6667 20.916 15.5022 23.7515 19 23.7515C22.4977 23.7515 25.3333 20.916 25.3333 17.4182C25.3333 13.9204 22.4977 11.0849 19 11.0849Z" fill="#001C6B"/>
</svg>
