<svg width="35" height="34" viewBox="0 0 35 34" fill="none" xmlns="http://www.w3.org/2000/svg">
<path d="M22.512 9.62137L19.834 9.24451C19.6097 9.213 19.4157 9.07656 19.3155 8.87972L18.1179 6.52953C17.8652 6.03394 17.1356 6.03394 16.883 6.52953L15.6852 8.87972C15.5849 9.07648 15.3911 9.21292 15.1669 9.24451L12.4887 9.62137C11.924 9.7009 11.6985 10.373 12.1071 10.7588L14.045 12.5882C14.2073 12.7414 14.2814 12.962 14.243 13.1784L13.7855 15.7616C13.6891 16.3063 14.2794 16.7217 14.7845 16.4645L17.1799 15.2449C17.3805 15.1428 17.6201 15.1428 17.8207 15.2449L20.2162 16.4645C20.7213 16.7216 21.3118 16.3063 21.2152 15.7616L20.7578 13.1784C20.7195 12.962 20.7934 12.7414 20.9557 12.5882L22.8936 10.7588C23.3023 10.373 23.0768 9.7009 22.512 9.62137Z" fill="url(#paint0_linear_712_1016)"/>
<path d="M34.4189 1.04985C34.3829 0.793556 34.2679 0.56314 34.0987 0.383761C34.0959 0.380824 34.0935 0.377729 34.0906 0.374792C34.0712 0.354711 34.0509 0.335741 34.0302 0.317009C34.0227 0.310263 34.0154 0.303357 34.008 0.29677C33.9896 0.280737 33.9702 0.265656 33.9508 0.250814C33.94 0.242559 33.9293 0.234384 33.9182 0.226447C33.9001 0.213589 33.8818 0.201365 33.8629 0.18938C33.8494 0.180888 33.8358 0.172474 33.8217 0.164457C33.804 0.154219 33.7862 0.144297 33.7678 0.134931C33.7518 0.126677 33.7354 0.118978 33.7191 0.111437C33.7016 0.103421 33.6843 0.0956424 33.6664 0.0884196C33.6481 0.0810381 33.6292 0.0744503 33.6105 0.0679419C33.5934 0.0620684 33.5767 0.0561155 33.5594 0.0509563C33.5383 0.044686 33.517 0.0396065 33.4956 0.0345267C33.4796 0.0307169 33.4638 0.0263513 33.4475 0.0231764C33.4229 0.0183348 33.3976 0.0150805 33.3726 0.0117469C33.3587 0.00992133 33.3453 0.00730219 33.3314 0.00603225C33.2929 0.00222242 33.2538 0.000158699 33.2142 7.93278e-05C33.2134 7.93278e-05 33.2126 0 33.2119 0H28.8476H6.15095H1.78653C1.78573 0 1.78494 7.93278e-05 1.78423 7.93278e-05C1.74471 0.000158699 1.70566 0.00222242 1.66702 0.00603225C1.65313 0.00738156 1.63964 0.00992133 1.62591 0.0117469C1.60075 0.0150805 1.57552 0.0183348 1.55092 0.0231764C1.53465 0.0263513 1.51885 0.0307169 1.50282 0.0345267C1.4814 0.0396065 1.46005 0.044686 1.4391 0.0509563C1.4218 0.0560361 1.40498 0.0620684 1.38807 0.0679419C1.36927 0.0744503 1.35046 0.0810381 1.33205 0.0884196C1.31419 0.0956424 1.29681 0.103421 1.27943 0.111437C1.26301 0.118978 1.24674 0.126677 1.23071 0.134931C1.21246 0.144297 1.19444 0.154219 1.17667 0.164457C1.16278 0.172553 1.14913 0.180888 1.13556 0.18938C1.11683 0.201286 1.09826 0.213589 1.08025 0.226447C1.06914 0.234384 1.0585 0.242559 1.04771 0.250814C1.02827 0.265736 1.00906 0.280737 0.990572 0.29677C0.982954 0.303357 0.975653 0.310263 0.968273 0.317009C0.94764 0.335741 0.927324 0.354711 0.90804 0.374792C0.905183 0.377729 0.902644 0.380903 0.899787 0.38384C0.730518 0.563299 0.615608 0.793556 0.579738 1.04985C0.571961 1.10564 0.566406 1.16232 0.566406 1.22026V21.4801C0.566406 21.538 0.571882 21.5946 0.579659 21.6505C0.579659 21.6505 0.579738 21.6505 0.579738 21.6505C0.615608 21.9067 0.730438 22.1369 0.899549 22.3162C0.902485 22.3193 0.905104 22.3226 0.90804 22.3255C0.927245 22.3455 0.94756 22.3644 0.968114 22.3832C0.975573 22.39 0.982874 22.397 0.990493 22.4036C1.0089 22.4195 1.02811 22.4347 1.04755 22.4494C1.05842 22.4577 1.06914 22.466 1.08025 22.4739C1.09834 22.4868 1.11667 22.4989 1.1354 22.511C1.14905 22.5195 1.16278 22.5279 1.17667 22.5359C1.19444 22.5462 1.21222 22.556 1.23055 22.5654C1.24666 22.5736 1.26301 22.5813 1.27951 22.589C1.29681 22.597 1.31419 22.6046 1.33181 22.6119C1.35038 22.6193 1.36935 22.6259 1.38831 22.6325C1.40506 22.6383 1.42172 22.6443 1.43886 22.6493C1.46005 22.6557 1.48156 22.6608 1.50322 22.6659C1.51901 22.6698 1.53465 22.674 1.55084 22.6772C1.57567 22.6821 1.60123 22.6855 1.62662 22.6888C1.64011 22.6905 1.65337 22.6932 1.66694 22.6944C1.7063 22.6982 1.74613 22.7005 1.78653 22.7005H4.64625H30.3522H33.2121C33.2526 22.7005 33.2922 22.6982 33.3316 22.6944C33.3453 22.693 33.3586 22.6905 33.3719 22.6888C33.3975 22.6855 33.423 22.6821 33.4479 22.6772C33.4638 22.674 33.4795 22.6698 33.4956 22.6659C33.5171 22.6608 33.5387 22.6557 33.5598 22.6493C33.577 22.6444 33.5936 22.6383 33.6105 22.6325C33.6294 22.6259 33.6484 22.6193 33.667 22.6119C33.6847 22.6046 33.7019 22.597 33.7191 22.589C33.7357 22.5813 33.7521 22.5738 33.7682 22.5654C33.7864 22.556 33.8043 22.5462 33.822 22.5359C33.8361 22.5277 33.8497 22.5195 33.8634 22.511C33.8821 22.4991 33.9006 22.4868 33.9185 22.4739C33.9297 22.466 33.9403 22.4577 33.9511 22.4494C33.9705 22.4345 33.9897 22.4195 34.0083 22.4036C34.0159 22.397 34.0232 22.39 34.0305 22.3832C34.0512 22.3646 34.0715 22.3455 34.0907 22.3255C34.0937 22.3226 34.0962 22.3193 34.099 22.3164C34.2683 22.1369 34.3831 21.9067 34.419 21.6505C34.419 21.6505 34.419 21.6505 34.419 21.6505C34.4268 21.5946 34.4322 21.538 34.4322 21.4801V1.22034C34.4321 1.16232 34.4267 1.10564 34.4189 1.04985ZM30.7281 21.6506H4.2705C3.21187 18.9694 1.95723 17.9349 1.21333 17.5413C2.64192 16.7855 5.9551 13.6717 6.14214 1.05H28.8564C29.0434 13.6717 32.3565 16.7855 33.7853 17.5413C33.0415 17.9347 31.7868 18.9694 30.7281 21.6506Z" fill="url(#paint1_linear_712_1016)"/>
<path d="M31.4841 27.505C32.4948 27.2542 33.236 26.3209 33.1896 25.2222C33.1417 24.083 32.2258 23.1451 31.0882 23.0722C29.7776 22.9882 28.6884 24.0267 28.6884 25.3195C28.6884 26.3757 29.4153 27.2615 30.396 27.505C29.0564 27.7146 27.9701 28.6861 27.5923 29.9623C27.2144 28.6861 26.1282 27.7146 24.7885 27.505C25.7992 27.254 26.5404 26.3208 26.494 25.2221C26.4461 24.0828 25.5301 23.1449 24.3925 23.0721C23.0818 22.9882 21.9929 24.0266 21.9929 25.3194C21.9929 26.3756 22.7198 27.2614 23.7006 27.5048C22.3304 27.7192 21.2249 28.7306 20.8718 30.0498C20.519 28.7306 19.4133 27.7192 18.0431 27.5048C19.0538 27.254 19.795 26.3206 19.7486 25.222C19.7007 24.0827 18.7847 23.1447 17.6472 23.072C16.3366 22.9881 15.2475 24.0265 15.2475 25.3192C15.2475 26.3754 15.9745 27.2612 16.9551 27.5046C15.5849 27.7191 14.4794 28.7304 14.1265 30.0497C13.7735 28.7304 12.6679 27.7191 11.2978 27.5046C12.3084 27.2537 13.0496 26.3205 13.0033 25.2218C12.9554 24.0825 12.0394 23.1446 10.9017 23.0718C9.5911 22.9881 8.50208 24.0264 8.50208 25.3191C8.50208 26.3752 9.22907 27.2611 10.2098 27.5045C8.87014 27.7142 7.78373 28.6857 7.40591 29.9617C7.02817 28.6857 5.94177 27.7142 4.60221 27.5045C5.61275 27.2536 6.35403 26.3203 6.30776 25.2216C6.25975 24.0824 5.34373 23.1444 4.20606 23.0716C2.89555 22.9878 1.80653 24.0262 1.80653 25.3189C1.80653 26.3751 2.53344 27.2609 3.51414 27.5043C1.84422 27.7657 0.566565 29.2105 0.566406 30.954V32.8295C0.566406 33.3842 0.936847 33.8519 1.44362 34H7.26188H7.54963H14.0073H20.7527H20.9907H27.4483H27.7361H33.5546C34.0613 33.8519 34.4317 33.3842 34.4317 32.8295V30.954C34.4317 29.2112 33.1539 27.7664 31.4841 27.505Z" fill="url(#paint2_linear_712_1016)"/>
<defs>
<linearGradient id="paint0_linear_712_1016" x1="17.5004" y1="6.15784" x2="17.5004" y2="24.0066" gradientUnits="userSpaceOnUse">
<stop stop-color="#204294"/>
<stop offset="1" stop-color="#0A152E"/>
</linearGradient>
<linearGradient id="paint1_linear_712_1016" x1="17.4993" y1="0" x2="17.4993" y2="39.0164" gradientUnits="userSpaceOnUse">
<stop stop-color="#204294"/>
<stop offset="1" stop-color="#0A152E"/>
</linearGradient>
<linearGradient id="paint2_linear_712_1016" x1="17.4991" y1="23.0669" x2="17.4991" y2="41.8581" gradientUnits="userSpaceOnUse">
<stop stop-color="#204294"/>
<stop offset="1" stop-color="#0A152E"/>
</linearGradient>
</defs>
</svg>
