<svg width="38" height="38" viewBox="0 0 38 38" fill="none" xmlns="http://www.w3.org/2000/svg">
<path d="M10.8318 3.16821H4.73148C3.85642 3.16821 3.14454 3.88136 3.16856 4.75609C3.67635 23.2449 13.1746 32.7431 31.6634 33.2509C32.5382 33.275 33.2513 32.5631 33.2513 31.688V25.5877C33.2513 24.9615 32.8825 24.3942 32.3103 24.1399L26.9488 21.757C26.4362 21.5292 25.841 21.5893 25.3845 21.9155L21.3014 24.832C20.851 25.1537 20.2615 25.2172 19.7551 24.9935C14.8707 22.8354 13.5841 21.5488 11.426 16.6644C11.2022 16.158 11.2657 15.5686 11.5875 15.1182L14.504 11.0351C14.8301 10.5785 14.8904 9.9834 14.6625 9.47064L12.2796 4.10914C12.0253 3.53697 11.4579 3.16821 10.8318 3.16821Z" fill="#001C6B"/>
</svg>
