<svg width="23" height="24" viewBox="0 0 23 24" fill="none" xmlns="http://www.w3.org/2000/svg">
<path d="M16.898 3.09539H14.6555V0.867085L16.898 3.09539ZM17.7706 4.8295V8.25442C15.5695 7.7613 13.2648 8.38448 11.6191 9.91916H4.40284C3.92621 9.92566 3.54228 10.3126 3.54228 10.7862C3.54228 11.2598 3.92621 11.6468 4.40284 11.6533H10.214C9.8977 12.1789 9.65339 12.7447 9.48976 13.3353H4.40262C3.92052 13.3353 3.53005 13.7233 3.53005 14.2024C3.53005 14.6814 3.92052 15.0694 4.40262 15.0694H9.24544C9.24653 15.6341 9.31634 16.1955 9.45486 16.7428H4.40262C3.92599 16.7493 3.54315 17.1363 3.54315 17.6099C3.54315 18.0835 3.92599 18.4704 4.40262 18.4769H10.1792C10.9132 19.7775 12.0443 20.8126 13.4086 21.4324C14.7731 22.0524 16.3 22.2258 17.7704 21.9277V22.6474C17.7693 23.0072 17.6242 23.3519 17.3679 23.6055C17.1105 23.8591 16.7625 24.0011 16.4004 24H2.02918C1.66815 24.0011 1.3213 23.8591 1.065 23.6055C0.809775 23.3508 0.666886 23.0061 0.667975 22.6474V1.35261C0.666884 0.993855 0.809766 0.649199 1.06609 0.395604C1.32131 0.140907 1.66815 -0.00107594 2.02918 6.13993e-06H12.9102V3.96236C12.9113 4.44034 13.3017 4.82833 13.7827 4.82941L17.7706 4.8295ZM3.53028 3.96245C3.53137 4.44042 3.92183 4.82841 4.40284 4.8295H9.86498C10.3471 4.8295 10.7375 4.4415 10.7375 3.96245C10.7375 3.48339 10.3471 3.09539 9.86498 3.09539H4.40284C3.92183 3.09648 3.53137 3.48447 3.53028 3.96245ZM14.8999 7.36989C14.8988 6.89191 14.5084 6.50392 14.0273 6.50284H4.40284C3.92074 6.50284 3.53028 6.89083 3.53028 7.36989C3.53028 7.84895 3.92074 8.23694 4.40284 8.23694H14.0273C14.2586 8.23802 14.4811 8.14698 14.6458 7.98441C14.8094 7.82076 14.901 7.59965 14.8999 7.36989ZM17.0377 20.2977C17.2864 20.2608 17.5318 20.2023 17.7706 20.1243V20.1416C17.5318 20.2186 17.2864 20.2706 17.0377 20.2977ZM16.2698 9.81511C16.5251 9.81186 16.7792 9.8357 17.029 9.88448C16.0124 9.74358 14.9773 9.91591 14.0622 10.3787C14.0535 10.37 14.0535 10.3613 14.0448 10.3527C14.733 10.0004 15.4954 9.81619 16.2698 9.81511ZM16.296 14.0377C15.5194 14.0182 14.7952 14.4246 14.4113 15.0955C14.8061 15.7566 15.5227 16.1631 16.296 16.1631C17.0693 16.1631 17.7859 15.7567 18.1807 15.0955C17.799 14.4225 17.0726 14.0161 16.296 14.0377ZM22.4126 21.165C22.2501 21.3308 22.0265 21.4251 21.7931 21.4251C21.5597 21.4251 21.3361 21.3308 21.1736 21.165L19.3499 19.3529C14.3239 22.9252 7.99787 16.2576 12.5701 11.3932C17.4392 6.8152 24.1751 13.1794 20.5891 18.1302L22.4127 19.9423C22.5764 20.1038 22.668 20.3238 22.668 20.5535C22.668 20.7833 22.5762 21.0035 22.4126 21.165ZM19.952 15.3817C20.1407 14.4182 19.2496 13.5132 18.5559 12.98C16.5882 11.5754 13.3783 12.463 12.6397 14.8008C12.4598 16.5165 14.6466 17.9394 16.2959 17.8789C17.9276 17.9136 19.4 16.9077 19.952 15.3817Z" fill="white"/>
</svg>
