<svg width="19" height="24" viewBox="0 0 19 24" fill="none" xmlns="http://www.w3.org/2000/svg">
<path fill-rule="evenodd" clip-rule="evenodd" d="M13.4018 5.19197C12.4467 4.24939 11.1262 3.66694 9.66797 3.66694C8.20976 3.66694 6.88937 4.24939 5.93412 5.19086C4.97897 6.13232 4.38806 7.43392 4.38806 8.87124C4.38806 10.3085 4.97897 11.61 5.93412 12.5516C6.88926 13.4942 8.20976 14.0766 9.66797 14.0766C11.1262 14.0766 12.4466 13.4942 13.4018 12.5527C14.3571 11.6113 14.9479 10.3097 14.9479 8.87235C14.9479 7.43514 14.357 6.13354 13.4018 5.19197ZM9.66797 3.04338C11.3008 3.04338 12.7791 3.69585 13.8493 4.75068C14.9194 5.80551 15.5814 7.26273 15.5814 8.87212C15.5814 10.4815 14.9194 11.9387 13.8493 12.9936C12.7791 14.0484 11.3007 14.7009 9.66797 14.7009C8.03519 14.7009 6.55681 14.0484 5.48665 12.9936C4.4165 11.9387 3.75454 10.4815 3.75454 8.87212C3.75454 7.26273 4.4165 5.80551 5.48665 4.75068C6.55681 3.69585 8.03519 3.04338 9.66797 3.04338ZM15.6807 14.1164C15.5623 14.1197 15.4405 14.1175 15.3165 14.1097C15.1417 14.0997 14.9928 14.2309 14.9827 14.4021C14.9816 14.4154 14.9816 14.4287 14.9827 14.4421C15.0131 14.9545 14.9534 15.4158 14.8023 15.7892C14.6658 16.126 14.4549 16.3917 14.1685 16.554C14.164 16.5573 14.1584 16.5595 14.1538 16.5629C13.8719 16.7185 13.5381 16.7629 13.1784 16.7118C12.7725 16.654 12.336 16.4739 11.9019 16.1916C11.7564 16.0971 11.5613 16.1372 11.4655 16.2805C11.4587 16.2905 11.4519 16.3017 11.4474 16.3117C11.214 16.7707 10.9264 17.142 10.605 17.3921C10.3164 17.6177 9.99947 17.7433 9.66794 17.7433C9.33754 17.7433 9.01953 17.6177 8.73084 17.3943C8.40945 17.1442 8.12189 16.773 7.88846 16.3139C7.81065 16.1605 7.6212 16.0983 7.46559 16.1749C7.45319 16.1816 7.44078 16.1883 7.42951 16.1961C6.99648 16.4773 6.5612 16.6551 6.1575 16.7129C5.79102 16.7652 5.45271 16.7185 5.1674 16.5562C4.88097 16.3928 4.67008 16.1283 4.53365 15.7915C4.38254 15.4169 4.32165 14.9545 4.35322 14.4399C4.36337 14.2676 4.23031 14.1208 4.05666 14.1109C4.04313 14.1097 4.02959 14.1097 4.01606 14.1109C3.89089 14.1186 3.76797 14.1197 3.64845 14.1175C3.6383 14.1164 3.62703 14.1164 3.61688 14.1164C3.25602 14.1042 2.92787 14.0431 2.64932 13.933C2.30763 13.7985 2.03924 13.5907 1.87348 13.3083C1.8701 13.3039 1.86784 13.2983 1.86446 13.2939C1.70658 13.016 1.66148 12.687 1.71335 12.3324C1.77199 11.9323 1.95467 11.5021 2.24109 11.0742C2.33695 10.9308 2.29635 10.7385 2.15088 10.644C2.14073 10.6373 2.12945 10.6307 2.11818 10.6262C1.65244 10.3961 1.27579 10.1127 1.02207 9.7959C0.79428 9.51135 0.667969 9.19899 0.667969 8.87222C0.667969 8.54655 0.795397 8.23309 1.02207 7.94854C1.2758 7.63174 1.65244 7.3483 2.11818 7.11821C2.2738 7.04152 2.33695 6.85478 2.25914 6.7014C2.25237 6.68918 2.2456 6.67695 2.23771 6.66584C1.95241 6.23901 1.77197 5.80996 1.71334 5.41205C1.66034 5.05192 1.70883 4.71734 1.87235 4.43723C2.03811 4.1549 2.3065 3.94703 2.64819 3.81256C3.02821 3.66361 3.49732 3.60359 4.01944 3.63471C4.19423 3.64472 4.34308 3.51356 4.35322 3.34239C4.35434 3.32905 4.35434 3.31572 4.35322 3.30238C4.32277 2.78996 4.38254 2.32867 4.53364 1.9552C4.67009 1.6184 4.88096 1.35275 5.16739 1.19047C5.4527 1.02819 5.79101 0.98039 6.15637 1.03263C6.56232 1.09043 6.99875 1.2705 7.43291 1.55282C7.57838 1.6473 7.77347 1.60728 7.86931 1.4639C7.87608 1.45389 7.88284 1.44278 7.88735 1.43166C8.12078 0.972596 8.40834 0.601342 8.72974 0.35125C9.01955 0.125609 9.33756 0 9.66796 0C9.99949 0 10.3164 0.124491 10.6051 0.349031C10.9265 0.599125 11.214 0.970376 11.4474 1.42944C11.5253 1.58283 11.7147 1.64508 11.8703 1.56838C11.8827 1.56171 11.8951 1.55505 11.9064 1.54726C12.3394 1.26605 12.7747 1.0882 13.1796 1.03041C13.5449 0.978165 13.8843 1.02596 14.1685 1.18824C14.455 1.35053 14.6658 1.61618 14.8023 1.95297C14.9534 2.32756 15.0143 2.78995 14.9827 3.30459C14.9726 3.47577 15.1056 3.6236 15.2793 3.63359C15.2928 3.6347 15.3063 3.6347 15.3199 3.63359C15.8397 3.60358 16.3077 3.66249 16.6877 3.81143C17.0294 3.94593 17.2989 4.15378 17.4636 4.43611C17.6282 4.71733 17.6767 5.0508 17.6226 5.41093C17.5639 5.81106 17.3813 6.24125 17.0948 6.66918C16.999 6.81257 17.0396 7.00487 17.1851 7.09934C17.1952 7.10601 17.2065 7.11268 17.2178 7.11712C17.6835 7.34721 18.0601 7.63065 18.3139 7.94744C18.5417 8.23199 18.668 8.54435 18.668 8.87112C18.668 9.1979 18.5417 9.51025 18.3139 9.79481C18.0601 10.1116 17.6835 10.395 17.2178 10.6251C17.0621 10.7018 16.999 10.8886 17.0768 11.0419C17.0836 11.0542 17.0903 11.0664 17.0982 11.0775C17.3835 11.5043 17.564 11.9334 17.6226 12.3313C17.6756 12.6914 17.6282 13.026 17.4636 13.3072H17.4625C17.2967 13.5895 17.0283 13.7974 16.6866 13.9319C16.4058 14.0419 16.0754 14.1031 15.7112 14.1153C15.701 14.1153 15.6908 14.1153 15.6807 14.1164ZM10.0692 18.3258L11.6119 24L13.8831 21.329C13.9744 21.2212 14.1244 21.1901 14.2484 21.2423L17.5559 22.4305L15.5915 15.2112C15.5554 15.5024 15.4877 15.7747 15.3885 16.0193C15.2002 16.4861 14.8991 16.8585 14.4852 17.0941C14.4784 17.0974 14.4728 17.1008 14.466 17.1041C14.0556 17.332 13.5853 17.4009 13.0903 17.3297C12.6877 17.2719 12.2659 17.1208 11.8476 16.8873C11.604 17.2942 11.3165 17.6321 10.9962 17.8811C10.7086 18.1045 10.3974 18.2568 10.0692 18.3258ZM8.05973 8.23757L8.97654 9.14125L11.5612 6.59364C11.745 6.41246 11.9863 6.32242 12.2287 6.32242C12.4712 6.32242 12.7125 6.41357 12.8963 6.59475C13.0801 6.77593 13.1715 7.01381 13.1715 7.25277C13.1715 7.49064 13.079 7.72851 12.8963 7.9108L9.85388 10.9285C9.73547 11.0463 9.60353 11.1352 9.45806 11.1941C9.31372 11.2541 9.15584 11.2842 8.98782 11.2842C8.81981 11.2842 8.66305 11.2553 8.51758 11.1952C8.36986 11.1352 8.23679 11.0474 8.11952 10.9307L6.72347 9.55462C6.53966 9.37344 6.44719 9.13446 6.44719 8.8966C6.44719 8.65762 6.53966 8.41975 6.72347 8.23857C6.90728 8.0574 7.14974 7.96625 7.39105 7.96625C7.6335 7.96625 7.87593 8.0564 8.05973 8.23757ZM8.78932 9.69368C8.89194 9.79483 9.05997 9.79483 9.16259 9.69368L11.9333 6.96264C12.0145 6.88261 12.1216 6.8426 12.2276 6.8426V6.84371C12.3347 6.84371 12.4419 6.88372 12.5219 6.96264C12.6031 7.04267 12.6426 7.14716 12.6426 7.25274C12.6426 7.35945 12.602 7.46504 12.5219 7.54506L9.48179 10.5619C9.413 10.6297 9.33745 10.6808 9.25626 10.7142C9.17394 10.7475 9.08372 10.7653 8.98787 10.7653C8.88976 10.7653 8.79955 10.7486 8.71836 10.7153C8.63829 10.683 8.56386 10.6319 8.49395 10.563L7.0979 9.18692C7.01671 9.10689 6.97611 9.00241 6.97611 8.89682C6.97611 8.79124 7.0167 8.68563 7.0979 8.60672C7.17909 8.52669 7.28509 8.48668 7.39221 8.48668C7.49934 8.48668 7.60647 8.52669 7.68653 8.60672L8.78932 9.69368ZM9.26744 18.3258C8.9393 18.2569 8.62691 18.1046 8.34051 17.8812C8.02024 17.6322 7.73268 17.2943 7.48912 16.8875C7.07075 17.1209 6.65014 17.2721 6.24641 17.3299C5.74347 17.4021 5.26647 17.331 4.85261 17.0942H4.85149C4.43763 16.8586 4.13653 16.4874 3.94822 16.0194C3.84673 15.7693 3.77794 15.4903 3.74298 15.1925L1.78082 22.4297L5.08828 21.2404C5.21346 21.1881 5.36231 21.2193 5.45364 21.3271L7.72478 23.9981L9.26744 18.3258Z" fill="white"/>
</svg>
